/* XPM */
static char *image[] = {
"48 48 382 2",
"   c None",
"00 c #696969",
"10 c #6c6a62",
"20 c #373737",
"30 c #2e2e2e",
"40 c #393939",
"50 c #333333",
"60 c #404040",
"70 c #4a4a4a",
"80 c #585858",
"90 c #636363",
":0 c #706c5b",
";0 c #999999",
"A0 c #5e5e5e",
"B0 c #a7a7a7",
"C0 c #5d5d5d",
"D0 c #777777",
"E0 c #6a6a6a",
"F0 c #535353",
"G0 c #1e1e1e",
"H0 c #383838",
"I0 c #1c1c1c",
"J0 c #5f5b4a",
"K0 c #5a5a57",
"L0 c #161616",
"M0 c #a2a2a2",
"N0 c #7b7b7b",
"O0 c #a3a3a3",
"P0 c #13110a",
"Q0 c #5c5744",
"R0 c #878787",
"S0 c #232323",
"T0 c #18150d",
"U0 c #645d45",
"V0 c #4e4e4e",
"W0 c #656565",
"X0 c #343434",
"Y0 c #1b180e",
"Z0 c #6a6248",
"a0 c #4b4b4b",
"b0 c #5f5f5f",
"c0 c #1a1a1a",
"d0 c #949494",
"e0 c #a1a1a1",
"f0 c #201d11",
"g0 c #676046",
"h0 c #505050",
"i0 c #646464",
"j0 c #464646",
"k0 c #abadae",
"l0 c #b7babd",
"m0 c #d1d6da",
"n0 c #bfc6ce",
"o0 c #acb6c1",
"p0 c #9daab7",
"q0 c #abb6c1",
"r0 c #cacaca",
"s0 c #1a170e",
"t0 c #6d6549",
"u0 c #515151",
"v0 c #686868",
"w0 c #272727",
"x0 c #e3e6e9",
"y0 c #d8dbde",
"z0 c #d4d8dd",
"01 c #8191a3",
"11 c #77899c",
"21 c #7b8d9f",
"31 c #ccd1d7",
"41 c #cfd1d3",
"51 c #d3d3d3",
"61 c #727272",
"71 c #ffffff",
"81 c #100f09",
"91 c #5e5843",
":1 c #494949",
";1 c #9c9c9c",
"A1 c #a3aeba",
"B1 c #d3d7db",
"C1 c #cfd4d9",
"D1 c #d0d0d0",
"E1 c #c7c7c7",
"F1 c #797979",
"G1 c #413e33",
"H1 c #414141",
"I1 c #575757",
"J1 c #9f9f9f",
"K1 c #d7d7d7",
"L1 c #bcbcbc",
"M1 c #bdbdbd",
"N1 c #bfbfbf",
"O1 c #ababab",
"P1 c #fafafa",
"Q1 c #fdfdfd",
"R1 c #444136",
"S1 c #3f3f3f",
"T1 c #313131",
"U1 c #838383",
"V1 c #aeaeae",
"W1 c #dddddd",
"X1 c #898989",
"Y1 c #c3c3c3",
"Z1 c #c5c5c5",
"a1 c #c6c6c6",
"b1 c #f9f9f9",
"c1 c #47443a",
"d1 c #424242",
"e1 c #979797",
"f1 c #d9d9d9",
"g1 c #f7f7f7",
"h1 c #f8f8f8",
"i1 c #4c493e",
"j1 c #626262",
"k1 c #dbdbdb",
"l1 c #c8c8c8",
"m1 c #f6f6f6",
"n1 c #fcfcfc",
"o1 c #787878",
"p1 c #070604",
"q1 c #444137",
"r1 c #3c3c3c",
"s1 c #f2f2f2",
"t1 c #f5f5f5",
"u1 c #dcdcdc",
"v1 c #353432",
"w1 c #d6d6d6",
"x1 c #f1f1f1",
"y1 c #eaeaea",
"z1 c #818e9c",
"02 c #4e6680",
"12 c #516982",
"22 c #c5ccd2",
"32 c #f4f4f4",
"42 c #2d2d2d",
"52 c #222222",
"62 c #6c6c6c",
"72 c #bebebe",
"82 c #979ea6",
"92 c #38536e",
":2 c #9ea4aa",
";2 c #adb0b3",
"A2 c #aeb1b4",
"B2 c #abafb3",
"C2 c #5e7286",
"D2 c #949da5",
"E2 c #b9babb",
"F2 c #f3f3f3",
"G2 c #303030",
"H2 c #191919",
"I2 c #959595",
"J2 c #9b9b9b",
"K2 c #cecece",
"L2 c #c9c9c9",
"M2 c #e5e6e7",
"N2 c #6f8296",
"O2 c #a1a6ab",
"P2 c #929292",
"Q2 c #cfcfcf",
"R2 c #eeeeee",
"S2 c #dfe1e4",
"T2 c #8b9aaa",
"U2 c #e9ecee",
"V2 c #868686",
"W2 c #595959",
"X2 c #bababa",
"Y2 c #c3c8cc",
"Z2 c #98a4b0",
"a2 c #bdc3c9",
"b2 c #767676",
"c2 c #616161",
"d2 c #4a637d",
"e2 c #9fa4aa",
"f2 c #9a9a9a",
"g2 c #7e7e7e",
"h2 c #e9eaea",
"i2 c #4f6781",
"j2 c #e7e9ec",
"k2 c #737373",
"l2 c #3d3d3d",
"m2 c #f0f0f0",
"n2 c #d4d5d7",
"o2 c #c9ccd0",
"p2 c #c2c7cc",
"q2 c #c5c9cd",
"r2 c #dbdcdd",
"s2 c #566c83",
"t2 c #89939e",
"u2 c #e9e9e9",
"v2 c #c1c1c1",
"w2 c #dddfe2",
"x2 c #6a7e93",
"y2 c #edeff1",
"z2 c #fbfbfb",
"03 c #3b3b3b",
"13 c #808080",
"23 c #d2d2d2",
"33 c #efefef",
"43 c #d5d7d9",
"53 c #b1b9c1",
"63 c #9aa6b1",
"73 c #909dab",
"83 c #93a0ad",
"93 c #a7b0ba",
":3 c #cccfd2",
";3 c #adadae",
"A3 c #a7aaad",
"B3 c #596e84",
"C3 c #a7b1bc",
"D3 c #bcc3cb",
"E3 c #d0d4d8",
"F3 c #c7ccd2",
"G3 c #8292a3",
"H3 c #c2c8cf",
"I3 c #d4d4d4",
"J3 c #474747",
"K3 c #d8d9da",
"L3 c #c6cace",
"M3 c #a1abb6",
"N3 c #9aa5b1",
"O3 c #b8bfc5",
"P3 c #afafaf",
"Q3 c #ced1d3",
"R3 c #bfc5cb",
"S3 c #4e667f",
"T3 c #526a82",
"U3 c #526982",
"V3 c #dcdee1",
"W3 c #ebebeb",
"X3 c #989898",
"Y3 c #7d7d7d",
"Z3 c #8f8f8f",
"a3 c #b6b6b6",
"b3 c #d5d5d5",
"c3 c #323232",
"d3 c #888888",
"e3 c #d8d8d8",
"f3 c #a6a6a6",
"g3 c #909090",
"h3 c #525252",
"i3 c #b5b5b5",
"j3 c #e1e1e1",
"k3 c #4f4f4f",
"l3 c #b9b9b9",
"m3 c #e8e8e8",
"n3 c #818181",
"o3 c #c4c4c4",
"p3 c #acacac",
"q3 c #a0a0a0",
"r3 c #717171",
"s3 c #565656",
"t3 c #b7b7b7",
"u3 c #e6e6e6",
"v3 c #e7e7e7",
"w3 c #292929",
"x3 c #c2c2c2",
"y3 c #ededed",
"z3 c #ececec",
"04 c #cdcdcd",
"14 c #dfdfdf",
"24 c #e0e0e0",
"34 c #e5e5e5",
"44 c #4c4c4c",
"54 c #282828",
"64 c #9e9e9e",
"74 c #cbcbcb",
"84 c #c0c0c0",
"94 c #b3b3b3",
":4 c #9d9d9d",
";4 c #adadad",
"A4 c #b8b8b8",
"B4 c #b4b4b4",
"C4 c #b0b0b0",
"D4 c #b1b1b1",
"E4 c #b2b2b2",
"F4 c #d1d1d1",
"G4 c #e2e2e2",
"H4 c #e3e3e3",
"I4 c #e4e4e4",
"J4 c #fefefe",
"K4 c #181818",
"L4 c #030302",
"M4 c #272625",
"N4 c #848484",
"O4 c #757575",
"P4 c #6b6b6b",
"Q4 c #5b5b5b",
"R4 c #555555",
"S4 c #6f6f6f",
"T4 c #828282",
"U4 c #747474",
"V4 c #8b8b8b",
"W4 c #8c8c8c",
"X4 c #8d8d8d",
"Y4 c #919191",
"Z4 c #bbbbbb",
"a4 c #1f1c11",
"b4 c #796932",
"c4 c #584c23",
"d4 c #594d23",
"e4 c #5a4d23",
"f4 c #5b4e23",
"g4 c #5c5024",
"h4 c #5d5024",
"i4 c #5f5225",
"j4 c #5f5325",
"k4 c #605326",
"l4 c #625526",
"m4 c #645627",
"n4 c #655728",
"o4 c #655828",
"p4 c #685a29",
"q4 c #695b29",
"r4 c #6a5c29",
"s4 c #6b5c2a",
"t4 c #6c5d2a",
"u4 c #917d39",
"v4 c #272315",
"w4 c #89773b",
"x4 c #7d6c31",
"y4 c #b79f4b",
"z4 c #b9a251",
"05 c #bca658",
"15 c #bea95e",
"25 c #c1ac64",
"35 c #c3af6a",
"45 c #c5b26f",
"55 c #15130b",
"65 c #89783c",
"75 c #76662f",
"85 c #b79e4a",
"95 c #b7a04d",
":5 c #b8a14e",
";5 c #b9a250",
"A5 c #baa353",
"B5 c #bba354",
"C5 c #bba455",
"D5 c #bca557",
"E5 c #bda759",
"F5 c #bda75b",
"G5 c #bea85d",
"H5 c #bfaa5f",
"I5 c #c0ab61",
"J5 c #c0ab62",
"K5 c #c1ad65",
"L5 c #c2ae66",
"M5 c #c2ae68",
"N5 c #c3b06b",
"O5 c #c4b06c",
"P5 c #c5b16e",
"Q5 c #c6b371",
"R5 c #c7b472",
"S5 c #c7b473",
"T5 c #c7b575",
"U5 c #c9b778",
"V5 c #060503",
"W5 c #9a8641",
"X5 c #9a853d",
"Y5 c #d1c28d",
"Z5 c #d3c593",
"a5 c #d4c694",
"b5 c #d5c796",
"c5 c #d5c897",
"d5 c #d6c899",
"e5 c #d6c99a",
"f5 c #d7c99b",
"g5 c #d8ca9d",
"h5 c #d8cb9f",
"i5 c #d8cca0",
"j5 c #d9cda1",
"k5 c #dacda3",
"l5 c #dacea4",
"m5 c #dbcfa6",
"n5 c #dcd0a7",
"o5 c #dcd1a8",
"p5 c #ddd1aa",
"q5 c #ddd2ab",
"r5 c #ded3ac",
"s5 c #ded4ae",
"t5 c #e5ddbf",
"u5 c #f8f5ed",
"v5 c #0e0d07",
"w5 c #000000",
"                                                                                                ",
"                                                                                                ",
"                                                                                                ",
"                                                                                                ",
"                                                                                                ",
"                                                                                                ",
"                                                                                                ",
"                w5w5w5w5w5w5w5w5w5w5w5w5w5w5w5w5w5w5w5w5w5w5w5w5w5w5w5w5w5v5                    ",
"              w5u5t5s5r5q5p5o5o5n5m5m5l5k5j5i5i5h5g5f5e5e5d5c5b5b5a5Z5Y5X5W5V5                  ",
"              w5n5U5T5S5R5Q5P5O5N5M5L5K5J5I5H5G5F5E5D5C5B5A5;5:595858585756555                  ",
"              w5m5T5S5Q545P5N535M5K525J5I515G5F505D5C5A5z4;595y485858585x4w4v4                  ",
"              w5u4t4s4r4q4p4p4o4o4n4m4l4l4k4k4j4i4h4g4f4e4e4d4c4c4c4c4c4c4b4a4                  ",
"                w5Z4Y4X4X4W4V4V4V4U4V4V4V4T4S4S4S4S4S4R4S4S4S4S4S4Q4P4O4N4M4L4                  ",
"                K4J4I4H4G4F4E4D4C4V4C4C4C4C4B4A4A4A4;4:4A4A4A4A4A49484746454w5                  ",
"                44J434I4I4H4G4F424D41414141414242424D404242424242414z3y3x3w3w5                  ",
"                44J4v3u334I4t3s3G4E42414141414C4r3q3C4E41414141414C4D4p3o354w5                  ",
"                n3J4m3v3u3u3l3k3H494G4j3241414i3h3g3f3F4141414141464W4e3d3c3w5                  ",
"                g3b3A4A4t3a3a3i3i3Z39494E4E4D4C4C4C4Y3C4C4C4C4C4C4C404o3X3R4w5                  ",
"                a3J4W3V3U3T3S3R3Q3P3I4H4H4G4j3241414C414O3N3M3L3K314y3F4:4J3w5                  ",
"                I3J4H3G3F3E3D3C3B3A3u334I4H4G4G4j324;3:393837363534333231303w5                  ",
"                z2y2x2w2z3W3v2u2t2s2v3u33434I4H4G4j3E4r2q2p2o214n2I4m2F4R4l2w5                  ",
"              k2J4j2i2h2y3B4g2f2e2d2m3m3v3u3I3c2b223Z4a2Z2Z2Y21414p3X2x3W2l2w5                  ",
"              V2J4U2T2S2R2Q2t3P2O2N2M2u2m3v3L2P4C4B4K2H4G4j3241424J2K2I2H2G2w5                  ",
"              P2F2E2D2C2B2A2;2:29282X2l3A4A4t3a3a3Z3i3B49494E4E4l372Z4625242w5                  ",
"              F4J432F222T21202z1q2y3z3z3W3y1u2m3m3a3u334I4I4H4G434x1w1T4w3v1w5                  ",
"              u1J4t132F2F2s1x172v333R2y3z3W3W3y1u2t3v3v3u334I4u3v3F2K2V2r1q1p1                  ",
"            o1n1J4m1t1t194f323l1x1m233R2R2y3B4;4y1E4u2m3v3u3u3m3k12494j1r1i1p1                  ",
"            64J4h1h1g1m1t194X2f1s1x1m2m233R2e1X2X2u1y1u2u2m3u2e3W4b3:452d1c1p1                  ",
"            W4b1a1Z1o3Y1Y1i3X1v2848424x1m2x3Y4W1i3z3W3W3y1y1y1q3V1x3U1T1S1R1p1                  ",
"            Q1J4z2P1P1b1h1g1O1m1t132L2N1N17272M1I2L1Z4X2:2M1M1l3K1J1h3I1H1G1p1                  ",
"          F1J4Q1Q1n1z2f1K2K2K1g1m1t1t132F2s1x1E1D1C1B1y3A1R2W3R2m1;142P4:19181                  ",
"          947171J4Q1p361;4p3x1h1g1g1m1t132v251N14131211101z0y0x0t1O4w0v0u0t0s0                  ",
"          m1F2r0r0L2L2l1D4N1P1P1b1h1g1m1m1b2L184C1q0p0o0n0m0l0k06444j0i0h0g0f0                  ",
"        X1J47171717171J4e0l1E1a1a1Z1Z1o3Y1x3x3d0v284N1x3w1F2I4v2J1c0b0S4a0Z0Y0                  ",
"        f1717171717171y3i3J4Q1n1n1z2P1b1h1h1Y1u3t1323232w1W1r0e1X0r1W0b2V0U0T0                  ",
"      X4J47171y1332471f1x17171J4Q1n1z2z2P1b1M1g1g1m1t132g1m2t3q3S0c2O4R0s3Q0P0                  ",
"    N4a3v2O0O0O0N094A4A4o3w1e3e3z3b1v3E1u1e3I4Q1n1n1P1m3R294M0L0k3o113;1K0J0P0                  ",
"      w5w5w5I0H0G0w003F0c2E0D0T4c2C0j1O0B0O1M1M184x3q3J2P2J2K4A0D0d3;0e1K0:0P0                  ",
"                w5r0V1;1;0D0908070d160X0c35040c342S052G0302090W4W4f3P3l3c21081                  ",
"                w572D0O4k26161616161k2U4U4U4U4U4U4E00000v0v0v0v0v0v0v00090I1w5                  ",
"                  w5w5w5w5w5w5w5w5w5w5w5w5w5w5w5w5w5w5w5w5w5w5w5w5w5w5w5w5w5w5                  ",
"                                                                                                ",
"                                                                                                ",
"                                                                                                ",
"                                                                                                ",
"                                                                                                ",
"                                                                                                ",
"                                                                                                "};
