/* XPM */
static char *image[] = {
"48 48 248 2",
"   c None",
"00 c #939394",
"10 c #949494",
"20 c #a4a4a5",
"30 c #adadae",
"40 c #c6c6c6",
"50 c #aeaeaf",
"60 c #010101",
"70 c #0a0a0a",
"80 c #b3b3b4",
"90 c #020202",
":0 c #b4b4b5",
";0 c #1e1e1e",
"A0 c #040404",
"B0 c #b5b5b6",
"C0 c #c3c3c3",
"D0 c #202020",
"E0 c #060606",
"F0 c #b6b6b7",
"G0 c #070707",
"H0 c #b8b8b9",
"I0 c #cbcbcb",
"J0 c #232323",
"K0 c #090909",
"L0 c #b9b9ba",
"M0 c #252525",
"N0 c #0b0b0b",
"O0 c #bababb",
"P0 c #cccccd",
"Q0 c #cfcfcf",
"R0 c #0c0c0c",
"S0 c #bbbbbc",
"T0 c #d2d2d2",
"U0 c #282828",
"V0 c #0e0e0e",
"W0 c #bdbdbe",
"X0 c #101010",
"Y0 c #bebebf",
"Z0 c #d6d6d6",
"a0 c #2c2c2c",
"b0 c #2b2b2b",
"c0 c #111111",
"d0 c #bfbfc0",
"e0 c #2d2d2d",
"f0 c #131313",
"g0 c #c0c0c1",
"h0 c #2f2f2f",
"i0 c #2e2e2e",
"j0 c #151515",
"k0 c #c1c1c2",
"l0 c #dcdcdc",
"m0 c #161616",
"n0 c #c3c3c4",
"o0 c #828282",
"p0 c #c4c4c5",
"q0 c #181818",
"r0 c #313131",
"s0 c #272727",
"t0 c #292929",
"u0 c #dfdfdf",
"v0 c #c5c5c6",
"w0 c #1a1a1a",
"x0 c #333333",
"y0 c #323232",
"z0 c #b6b6b6",
"01 c #e2e2e2",
"11 c #8b8b8b",
"21 c #878787",
"31 c #c6c6c7",
"41 c #1c1c1c",
"51 c #343434",
"61 c #353535",
"71 c #e7e7e7",
"81 c #868686",
"91 c #d0d0d0",
":1 c #e6e6e6",
";1 c #898989",
"A1 c #e3e3e3",
"B1 c #c8c8c9",
"C1 c #1d1d1d",
"D1 c #e4e4e4",
"E1 c #d2d2d3",
"F1 c #8c8c8c",
"G1 c #e5e5e5",
"H1 c #c9c9ca",
"I1 c #1f1f1f",
"J1 c #373737",
"K1 c #ececec",
"L1 c #ededed",
"M1 c #c2c2c2",
"N1 c #d4d4d4",
"O1 c #d4d4d5",
"P1 c #8e8e8e",
"Q1 c #e6e6e7",
"R1 c #cacacb",
"S1 c #212121",
"T1 c #383838",
"U1 c #cecece",
"V1 c #d5d5d5",
"W1 c #909090",
"X1 c #cbcbcc",
"Y1 c #222222",
"Z1 c #393939",
"a1 c #3d3d3d",
"b1 c #3f3f3f",
"c1 c #454545",
"d1 c #acacac",
"e1 c #bfbfbf",
"f1 c #939393",
"g1 c #eaeaea",
"h1 c #cdcdce",
"i1 c #242424",
"j1 c #3a3a3a",
"k1 c #3b3b3b",
"l1 c #434343",
"m1 c #979797",
"n1 c #e0e0e0",
"o1 c #ededee",
"p1 c #ebebeb",
"q1 c #cececf",
"r1 c #262626",
"s1 c #3e3e3e",
"t1 c #404040",
"u1 c #474747",
"v1 c #484848",
"w1 c #4a4a4a",
"x1 c #5d5d5d",
"y1 c #858585",
"z1 c #f9f9f9",
"02 c #959595",
"12 c #d8d8d9",
"22 c #efefef",
"32 c #989898",
"42 c #ececed",
"52 c #cfcfd0",
"62 c #2a2a2a",
"72 c #414141",
"82 c #444444",
"92 c #5b5b5b",
":2 c #fbfbfb",
";2 c #b0b0b0",
"A2 c #d9d9d9",
"B2 c #f0f0f1",
"C2 c #9a9a9a",
"D2 c #eeeeee",
"E2 c #d1d1d2",
"F2 c #303030",
"G2 c #494949",
"H2 c #c1c1c1",
"I2 c #9c9c9c",
"J2 c #f0f0f0",
"K2 c #d3d3d4",
"L2 c #363636",
"M2 c #4b4b4b",
"N2 c #4d4d4d",
"O2 c #636363",
"P2 c #dadadb",
"Q2 c #9f9f9f",
"R2 c #f2f2f2",
"S2 c #d5d5d6",
"T2 c #d6d6d7",
"U2 c #3c3c3c",
"V2 c #4f4f4f",
"W2 c #5f5f5f",
"X2 c #727272",
"Y2 c #565656",
"Z2 c #dcdcdd",
"a2 c #f3f3f4",
"b2 c #a1a1a1",
"c2 c #f3f3f3",
"d2 c #d7d7d8",
"e2 c #d8d8d8",
"f2 c #424242",
"g2 c #535353",
"h2 c #5c5c5c",
"i2 c #5e5e5e",
"j2 c #606060",
"k2 c #626262",
"l2 c #656565",
"m2 c #707070",
"n2 c #6d6d6d",
"o2 c #6b6b6b",
"p2 c #696969",
"q2 c #686868",
"r2 c #666666",
"s2 c #585858",
"t2 c #dddddd",
"u2 c #a3a3a3",
"v2 c #f4f4f4",
"w2 c #d9d9da",
"x2 c #464646",
"y2 c #646464",
"z2 c #676767",
"03 c #6a6a6a",
"13 c #6c6c6c",
"23 c #6e6e6e",
"33 c #6f6f6f",
"43 c #717171",
"53 c #747474",
"63 c #808080",
"73 c #7f7f7f",
"83 c #7e7e7e",
"93 c #7d7d7d",
":3 c #7c7c7c",
";3 c #7b7b7b",
"A3 c #7a7a7a",
"B3 c #797979",
"C3 c #787878",
"D3 c #777777",
"E3 c #767676",
"F3 c #757575",
"G3 c #737373",
"H3 c #ddddde",
"I3 c #a6a6a6",
"J3 c #f5f5f5",
"K3 c #dbdbdb",
"L3 c #dbdbdc",
"M3 c #4c4c4c",
"N3 c #4e4e4e",
"O3 c #505050",
"P3 c #515151",
"Q3 c #525252",
"R3 c #545454",
"S3 c #555555",
"T3 c #575757",
"U3 c #595959",
"V3 c #5a5a5a",
"W3 c #616161",
"X3 c #dededf",
"Y3 c #f6f6f6",
"Z3 c #a8a8a8",
"a3 c #f7f7f7",
"b3 c #e0e0e1",
"c3 c #e1e1e1",
"d3 c #e1e1e2",
"e3 c #e2e2e3",
"f3 c #f8f8f8",
"g3 c #aaaaaa",
"h3 c #e7e7e8",
"i3 c #e8e8e8",
"j3 c #e8e8e9",
"k3 c #e9e9e9",
"l3 c #fafafa",
"m3 c #adadad",
"n3 c #fcfcfc",
"o3 c #f1f1f1",
"p3 c #b2b2b2",
"q3 c #b4b4b4",
"                                                                                                ",
"                                                                                                ",
"                                                                                                ",
"                                                                                                ",
"                                                                                                ",
"                                                                                                ",
"                                                                                                ",
"    q3p3p3p3p3p3p3p3p3p3p3p3p3p3p3p3p3p3p3p3p3p3p3p3p3p3p3p3p3p3p3p3p3p3p3p3p3p3p3p3p3p3p3q3    ",
"  p3o3n3n3n3n3n3n3n3n3n3n3n3n3n3n3n3n3n3n3n3n3n3n3n3n3n3n3n3n3n3n3n3n3n3n3n3n3n3n3n3n3n3n3o3p3  ",
"  m3l3k3k3k3k3k3k3k3k3k3k3k3k3k3k3k3k3k3k3k3k3k3k3k3k3k3k3k3k3k3k3k3k3k3k3k3j3j3j3j3i3h3h3l3m3  ",
"  g3f3e3e3e3e3e3e3e3e3e3e3e3e3e3e3e3e3e3e3e3e3e3e3e3e3e3e3e3e3e3e3e3e3e3e3d3d3d3d3c3b3b3b3a3g3  ",
"  Z3Y3X3X3W3V3V3V3V3V3V3V3V3V3V3V3V3V3V3V3V3V3V3V3V3V3V3V3V3V3V3V3U3T3S3R3Q3P3O3N3M3Q3L3K3J3Z3  ",
"  I3J3H3H3U3G3F3E3E3D3C3C3B3A3;3:3:3938373737363637373738393:3B3D3E3534333231303z2y2x2w2w2v2I3  ",
"  u2J3t2t2s2G3r2r2z2q2p2p203o213n2n2233333m243434343m22323o2p2z2l2k2j2i2h2V3T3S3g2W3f2e2d2c2u2  ",
"  b2a2Z2Z2Y2X2r2l2r2z2q2p2p203o213n2n223233333333323n2o2p2z2l2k2j2W2h2V3T3S3g2O3V2h2U2T2S2R2b2  ",
"  Q2R2P2P2S343l2l2r2z2q2p2p2p203o213n2n2n2n2n213o203q2r2y2O2j2W2h2V3U3Y2R3P3O3N2M2s2L2K2K2J2Q2  ",
"  I2o3w2w2R3m2y2l2l2p3H2o2p2p2p203o2o2130303q2q2r2l2O2W3j2i2h2V3s2S3R3Q3O3N2M2G2x2R3F2E2E2D2I2  ",
"  C2B2A2A2Q3m2O2y2;2:2:2A2F3q2p2p2p2q2z2r2l2y2k2W3W2i2h292U3T3Y2g2P3V2N3M2G2x28272P362525242C2  ",
"  32221212P323O2O202o3z1z1k3y1r2l2y2O2O2W3j2i2x192V3U3s2Y2R3Q3O3V2N2w1v1u182f2t1s1M2r1q1q1p132  ",
"  02o1d2d2O3n2W3k2h243n1Y3Y3o3m1j2j2W2x1h2V3V3s2s2Y2R3Q3P3V2N2M3w1v1x2l1f2t1s1k1j1G2i1h1h1g102  ",
"  f142S2S2N313W3W3k2x1U3e1c2c2R2d1h2U3s2T3Y2S3R3Q3P3V2N3M2w1G2u1c1l172b1a1U2k1j1Z1u1Y1X1X1i3f1  ",
"  W1p1V1V1N203W2i2i2h2V3V2U1J2J2J2C2R3g2Q3P3O3N3N2M2w1G2u1c1l1f2b1s1U2k1k1j1j1Z1T182S1R1R1Q1W1  ",
"  P1g1O1N1G2l2V3V3s2T3W3M1L1L1K1C2v1V2N3N2M2w1v1u1x282f2t1b1a1U2U2k1k1j1Z1Z1T1T1J1l1I1H1H1G1P1  ",
"  F1i3E1E182j2Y2R3g233V1g1g1D1C372M3w1G2u1c1f2t1s1a1U2k1k1k1k1j1j1Z1Z1Z1T1J1J1L2L272C1B1B1A1F1  ",
"  ;1:19152b192O3V281c37171N1U3s1l1b1a1k1j1j1j1j1j1j1j1j1Z1Z1Z1Z1T1T1J1J1L2L2616151b1413131c3;1  ",
"  21D1U1h1Z1S3M3G211A101z0L2y0J1J1J1T1T1T1T1T1T1T1T1T1T1T1T1J1J1J1L2L261615151x0x0U2w0v0v0u021  ",
"  y1d3R1H1r17251y0t083W1s0y0616161L2L2L2L2L2L2L2L2L2L2L2L2L2L26161615151x0x0y0y0r0k1q0p0p0H3y1  ",
"  o0L3n0n0m0T1F2F2r0s0r1y0x0x0x05151Y3Y3Y3Y3Y3Y3Y3Y3615151515151x0x0x0y0y0r0r0F2F2T1m0n0n0l0o0  ",
"  63A2k0k0j0L2i0h0h0F2F2r0r0r0y0y0y0G1G1G1G1G1G1G1G1x0x0x0y0y0y0y0r0r0r0F2F2h0h0i0L2j0k0k0w263  ",
"  83d2g0g0f0x0e0e0i0i0h0h0h0F2F2F2F2C1C1C1C1C1C1C1C1r0r0r0r0F2F2F2F2h0h0h0i0i0e0e0x0f0g0g0d283  ",
"  ;3S2d0d0c0y0b0a0a0e0e0e0i0i0i0h0h0h0h0h0h0h0h0h0h0h0h0h0h0h0h0i0i0i0e0e0e0a0a0b0y0c0d0d0Z0;3  ",
"  B3K2Y0Y0X0F26262b0b0b0a0a0a0e0e0e0e0e0e0i0i0i0i0i0i0e0e0e0e0e0e0a0a0a0b0b0b06262F2X0Y0Y0N1B3  ",
"  E3E2W0W0V0i0U0t0t0t0626262b0b0b0b0b0a0a0a0a0a0a0a0a0a0a0b0b0b0b0b0626262t0t0t0U0i0V0W0W0T0E3  ",
"  53q1S0S0R0b0s0s0s0U0U0U0t0t0t0t06262626262626262626262626262t0t0t0t0U0U0U0s0s0s0b0R0S0S0Q053  ",
"  X2P0O0O0N0t0M0M0r1r1r1s0s0s0s0U0U0U0U0U0U0U0U0U0U0U0U0U0U0U0U0s0s0s0s0r1r1r1M0M0t0N0O0O0h1X2  ",
"  33R1L0L0K0r1J0i1i1i1M0M0M0r1r1r1r1r1r1s0s0s0s0s0s0s0s0r1r1r1r1r1r1M0M0M0i1i1i1J0r1K0L0L0I033  ",
"  n2B1H0H0G0i1Y1Y1Y1J0J0J0i1i1i1i1i1M0M0M0M0M0M0M0M0M0M0M0M0i1i1i1i1i1J0J0J0Y1Y1Y1i1G0H0H0B1n2  ",
"  o2v0F0F0E0Y1D0D0S1S1S1Y1Y1Y1Y1Y1J0J0J0J0J0J0J0J0J0J0J0J0J0J0Y1Y1Y1Y1Y1S1S1S1D0D0Y1E0F0F0v0o2  ",
"  q2C0B0B0A0I1;0I1I1I1D0D0D0D0S1S1S1S1S1S1S1S1S1S1S1S1S1S1S1S1S1S1D0D0D0D0I1I1I1;0I1A0B0B0n0q2  ",
"  r2g0:0:09041C1C1C1;0;0;0;0I1I1I1I1I1I1D0D0D0D0D0D0D0D0I1I1I1I1I1I1;0;0;0;0C1C1C14190:0:0k0r2  ",
"  O2Y080Y07060606060606060606060606060606060606060606060606060606060606060606060606070Y080Y0O2  ",
"  W3H050p04040404040404040404040404040404040404040404040404040404040404040404040404040p050L0W3  ",
"  W23020202020202020202020202020202020202020202020202020202020202020202020202020202020202050W2  ",
"  i21020202020202020202020202020202020202020202020202020202020202020202020202020202020202000W2  ",
"    h2V3V3V3V3V3V3V3V3V3V3V3V3V3V3V3V3V3V3V3V3V3V3V3V3V3V3V3V3V3V3V3V3V3V3V3V3V3V3V3V3V3V3h2    ",
"                                                                                                ",
"                                                                                                ",
"                                                                                                "};
