/* XPM */
static char *image[] = {
"32 32 393 2",
"   c None",
"00 c #cbd145",
"10 c #cfd242",
"20 c #cdd142",
"30 c #ccd143",
"40 c #cbd143",
"50 c #cad143",
"60 c #c9d044",
"70 c #c7d044",
"80 c #c6d045",
"90 c #c5d045",
":0 c #c3d046",
";0 c #c2d046",
"A0 c #c0d047",
"B0 c #bfd047",
"C0 c #bed047",
"D0 c #bccf47",
"E0 c #bacf48",
"F0 c #a6cb4e",
"G0 c #54bf66",
"H0 c #4fbf67",
"I0 c #4dbf68",
"J0 c #4bbe69",
"K0 c #47be6a",
"L0 c #f4f24b",
"M0 c #f5f44b",
"N0 c #f3f44c",
"O0 c #f2f44c",
"P0 c #f0f44d",
"Q0 c #eff34d",
"R0 c #eef34d",
"S0 c #ecf34e",
"T0 c #ebf34e",
"U0 c #e9f34f",
"V0 c #e7f24f",
"W0 c #e6f250",
"X0 c #e4f250",
"Y0 c #e2f251",
"Z0 c #e1f151",
"a0 c #dff152",
"b0 c #ddf152",
"c0 c #dcf153",
"d0 c #daf053",
"e0 c #d6ee55",
"f0 c #5cdd79",
"g0 c #5add7a",
"h0 c #58dd7a",
"i0 c #56dc7b",
"j0 c #4ddc7f",
"k0 c #d6d340",
"l0 c #faf64a",
"m0 c #fcf84b",
"n0 c #f7f34a",
"o0 c #edea47",
"p0 c #e7e646",
"q0 c #e6e546",
"r0 c #e5e547",
"s0 c #e4e547",
"t0 c #e2e547",
"u0 c #e1e548",
"v0 c #dfe448",
"w0 c #dee449",
"x0 c #dce449",
"y0 c #dae44a",
"z0 c #d9e34a",
"01 c #d7e34b",
"11 c #d4e34d",
"21 c #d1e24e",
"31 c #cee24f",
"41 c #cbe150",
"51 c #5ad171",
"61 c #57d071",
"71 c #57d574",
"81 c #59dd79",
"91 c #59e17c",
":1 c #56de7b",
";1 c #3cbd72",
"A1 c #eeea48",
"B1 c #d2ce3f",
"C1 c #c3c03b",
"D1 c #c2c03b",
"E1 c #c1c03b",
"F1 c #c0bf3b",
"G1 c #bebf3c",
"H1 c #bdbf3c",
"I1 c #b9be3d",
"J1 c #b7be3e",
"K1 c #b4bd3f",
"L1 c #b0bd40",
"M1 c #aebd41",
"N1 c #aabc42",
"O1 c #a5ba45",
"P1 c #4daf5e",
"Q1 c #4caf5e",
"R1 c #50bb66",
"S1 c #5ad574",
"T1 c #5de17c",
"U1 c #5adf7b",
"V1 c #4cbf6a",
"W1 c #020202",
"X1 c #5bd172",
"Y1 c #60e17c",
"Z1 c #5ddf7b",
"a1 c #4fbf6a",
"b1 c #d6d341",
"c1 c #faf64b",
"d1 c #fcf84c",
"e1 c #e9e646",
"f1 c #050505",
"g1 c #5dd171",
"h1 c #63e27b",
"i1 c #60e07a",
"j1 c #51bf6a",
"k1 c #d6d342",
"l1 c #eeeeee",
"m1 c #080808",
"n1 c #60d270",
"o1 c #66e27a",
"p1 c #63e079",
"q1 c #54c069",
"r1 c #bace53",
"s1 c #faf64c",
"t1 c #fcf84d",
"u1 c #e9e647",
"v1 c #747474",
"w1 c #0b0b0b",
"x1 c #64d271",
"y1 c #6ae37a",
"z1 c #68e17a",
"02 c #56bf6a",
"12 c #1bafba",
"22 c #faf64d",
"32 c #0f0f0f",
"42 c #67d371",
"52 c #6de37a",
"62 c #69e07b",
"72 c #43bf6f",
"82 c #f4f550",
"92 c #131313",
":2 c #6ad370",
";2 c #70e47a",
"A2 c #4dde82",
"B2 c #41be71",
"C2 c #66d6bb",
"D2 c #fcf84e",
"E2 c #e9e648",
"F2 c #171717",
"G2 c #6cd470",
"H2 c #56e084",
"I2 c #4add84",
"J2 c #3ebe71",
"K2 c #07abcb",
"L2 c #05c3f8",
"M2 c #fcf84f",
"N2 c #1b1b1b",
"O2 c #61d074",
"P2 c #49df86",
"Q2 c #46dd86",
"R2 c #3bbd73",
"S2 c #04a8d7",
"T2 c #06c4f6",
"U2 c #bfec7c",
"V2 c #202020",
"W2 c #333333",
"X2 c #2b2b2b",
"Y2 c #1f1f1f",
"Z2 c #42ce7d",
"a2 c #45df87",
"b2 c #42dc87",
"c2 c #37bd74",
"d2 c #04a8d5",
"e2 c #06c4f4",
"f2 c #10c8ec",
"g2 c #e9e649",
"h2 c #2d2d2d",
"i2 c #999999",
"j2 c #eaeaea",
"k2 c #606060",
"l2 c #494949",
"m2 c #c6c6c6",
"n2 c #232323",
"o2 c #3fcd7f",
"p2 c #42de89",
"q2 c #3fdc89",
"r2 c #35bd75",
"s2 c #05a9d4",
"t2 c #07c5f2",
"u2 c #07c8ef",
"v2 c #dde551",
"w2 c #c4c4c4",
"x2 c #4b4b4b",
"y2 c #262626",
"z2 c #3bce81",
"03 c #3edf8b",
"13 c #3ddc8b",
"23 c #32bd77",
"33 c #05a9d2",
"43 c #07c6f0",
"53 c #08c9ee",
"63 c #3ec5b9",
"73 c #7d7d7d",
"83 c #303030",
"93 c #737373",
":3 c #e9e9e9",
";3 c #929292",
"A3 c #292929",
"B3 c #38cd82",
"C3 c #3bde8c",
"D3 c #39dc8c",
"E3 c #30bd78",
"F3 c #06aad0",
"G3 c #07c7ee",
"H3 c #08c9ec",
"I3 c #08bbd6",
"J3 c #d3d3d3",
"K3 c #656565",
"L3 c #696969",
"M3 c #c8c8c8",
"N3 c #2c2c2c",
"O3 c #34cd83",
"P3 c #37de8e",
"Q3 c #35db8d",
"R3 c #2bbc79",
"S3 c #06aacf",
"T3 c #08c7ed",
"U3 c #08caea",
"V3 c #08bcd5",
"W3 c #7a7a7a",
"X3 c #ebebeb",
"Y3 c #f7f7f7",
"Z3 c #989898",
"a3 c #686868",
"b3 c #7f7f7f",
"c3 c #2f2f2f",
"d3 c #31cd84",
"e3 c #33dd8f",
"f3 c #32db8f",
"g3 c #29bc7b",
"h3 c #05aacd",
"i3 c #08c7eb",
"j3 c #09bcd3",
"k3 c #e3e3e3",
"l3 c #797979",
"m3 c #d4d4d4",
"n3 c #555555",
"o3 c #c9c9c9",
"p3 c #323232",
"q3 c #2ecd85",
"r3 c #30dd90",
"s3 c #2fda8f",
"t3 c #26bb7b",
"u3 c #08acc6",
"v3 c #07c7ea",
"w3 c #09cbe7",
"x3 c #09bcd1",
"y3 c #404040",
"z3 c #bfbfbf",
"04 c #6f6f6f",
"14 c #484848",
"24 c #b9b9b9",
"34 c #cecece",
"44 c #454545",
"54 c #f6f6f6",
"64 c #f2f2f2",
"74 c #6d6d6d",
"84 c #444444",
"94 c #626262",
":4 c #cacaca",
";4 c #353535",
"A4 c #2bcc86",
"B4 c #2cdc92",
"C4 c #2ada91",
"D4 c #23bb7d",
"E4 c #09cae7",
"F4 c #8d8d8d",
"G4 c #dedede",
"H4 c #525252",
"I4 c #a0a0a0",
"J4 c #f8f8f8",
"K4 c #cbcbcb",
"L4 c #373737",
"M4 c #27cd87",
"N4 c #29dd93",
"O4 c #27da92",
"P4 c #1fbb7e",
"Q4 c #09bdd0",
"R4 c #6e6e6e",
"S4 c #b1b1b1",
"T4 c #c7c7c7",
"U4 c #bebebe",
"V4 c #8f8f8f",
"W4 c #434343",
"X4 c #707070",
"Y4 c #a5a5a5",
"Z4 c #acacac",
"a4 c #919191",
"b4 c #3a3a3a",
"c4 c #24cc88",
"d4 c #25dc94",
"e4 c #24da93",
"f4 c #1dbb7f",
"g4 c #09bfdb",
"h4 c #3b3b3b",
"i4 c #21d08d",
"j4 c #21d994",
"k4 c #1aba80",
"l4 c #3d3d3d",
"m4 c #1ed793",
"n4 c #1dd996",
"o4 c #9eed6f",
"p4 c #a5ee6d",
"q4 c #abef6b",
"r4 c #aeef6a",
"s4 c #a7ee6c",
"t4 c #a2ed6e",
"u4 c #9dec6f",
"v4 c #1ad6ab",
"w4 c #14d7a6",
"x4 c #15d8a1",
"y4 c #16d99b",
"z4 c #27dc94",
"05 c #25dc95",
"15 c #24dc95",
"25 c #20dc96",
"35 c #1fdb96",
"45 c #1cdb97",
"55 c #1bdb98",
"65 c #19d897",
"75 c #14ba81",
"85 c #09c8e6",
"95 c #09cae8",
":5 c #9bec6f",
";5 c #a2ed6d",
"A5 c #a9ee6c",
"B5 c #a8ee6c",
"C5 c #a1ed6e",
"D5 c #9ced6f",
"E5 c #20d6ab",
"F5 c #14d7ab",
"G5 c #15d7a5",
"H5 c #15d8a0",
"I5 c #1cda9a",
"J5 c #22dc95",
"K5 c #22dc96",
"L5 c #20db96",
"M5 c #1edb97",
"N5 c #1ddb97",
"O5 c #1bdb97",
"P5 c #1adb98",
"Q5 c #19da98",
"R5 c #17da99",
"S5 c #16d898",
"T5 c #21bb7e",
"U5 c #09c6e3",
"V5 c #09c8e5",
"W5 c #91e875",
"X5 c #9fea6d",
"Y5 c #a3eb6b",
"Z5 c #a0ea6d",
"a5 c #99ea6f",
"b5 c #26d4a9",
"c5 c #13d3ac",
"d5 c #13d4a8",
"e5 c #14d5a3",
"f5 c #15d69e",
"g5 c #1ed796",
"h5 c #1fd895",
"i5 c #1ed896",
"j5 c #1dd896",
"k5 c #1bd896",
"l5 c #1ad896",
"m5 c #18d796",
"n5 c #17d797",
"o5 c #15d698",
"p5 c #3edb88",
"q5 c #41da86",
"r5 c #33b6a1",
"s5 c #86ca5e",
"t5 c #89ca5e",
"u5 c #85ca5f",
"v5 c #24b3ae",
"w5 c #08acc5",
"x5 c #0fb697",
"y5 c #0fb790",
"z5 c #11b88c",
"06 c #12b987",
"16 c #18ba81",
"26 c #17ba82",
"36 c #15ba82",
"46 c #14ba83",
"56 c #13ba83",
"66 c #19ba81",
"76 c #38bd75",
"                                                                ",
"                                                                ",
"    76767676766656463626162606z5y5x5w5v5u5t5s5r5w5w5w5w5w5w5    ",
"    76q5p5o5n5m5l5k5j5i5h5g5f5e5d5c5b5a5Z5Y5X5W5V5V5V5V5U5w5    ",
"    T5S5R5Q5P5O5N5M5L5K5J5I5H5G5F5E5D5C5B5A5;5:59595959585w5    ",
"    75655545N53525K51505z4y4x4w4v4u4t4s4r4q4p4o49595959585w5    ",
"    16n4M5m4l4l4l4l4l4l4l4l4l4l4l4l4l4l4l4l4l4l4l4l4U59585w5    ",
"    k4j4J5i4h4h4h4h4h4h4h4h4h4h4h4h4h4h4h4h4h4h4h4h4g49585w5    ",
"    f4e4d4c4b4b4a4Z4Z4Z4Y4X4b4b4b4W4V4U4T4S4R4b4b4b4Q49585w5    ",
"    P4O4N4M4L4L4K4J4J4J4J4J4I4L4H4G4J4J4J4J4J4F4L4L4Q4E485w5    ",
"    D4C4B4A4;4;4:4J494847464544434J42414L404z3y3;4;4x3w3v3u3    ",
"    t3s3r3q3p3p3o3J4n3p3p3m3J4l3J4k3L4p3p3p3p3p3p3p3j395i3h3    ",
"    g3f3e3d3c3c3o3J4b3a3Z3Y3X3W3J424c3c3c3c3c3c3c3c3V3U3T3S3    ",
"    R3Q3P3O3N3N3M3J4J4J4J4X3L3K3J4J3N3N3N3N3N3N3N3N3I3H3G3F3    ",
"    E3D3C3B3A3A3T4J4;3l394;4A3p3:3J493A3A38373N3A3A363534333    ",
"    231303z2y2y2T4J4x2y2y2y2y2y204Y3Y3w2S4k3J4;3y2y2v2u2t2s2    ",
"    r2q2p2o2n2n2m2J4l2n2n2n2n2n2n2k234J4J4j2i2h2n2n2g2f2e2d2    ",
"    c2b2a2Z2Y2Y2Y2Y2Y2Y2Y2Y2Y2Y2Y2Y2Y2X2W2V2Y2Y2Y2Y2g2U2T2S2    ",
"    R2Q2P2O2N2N2N2N2N2N2N2N2N2N2N2N2N2N2N2N2N2N2N2N2g2M2L2K2    ",
"    J2I2H2G2F2F2F2F2F2F2F2F2F2F2F2F2F2F2F2F2F2F2F2F2E2D2C2w5    ",
"    B2A2;2:29292929292929292929292929292929292929292E2D282w5    ",
"    726252423232323232323232323232323232323232323232E2D22212    ",
"    02z1y1x1w1w1v1V4V4V4V4V4V4V4w1w1w1w1w1w1w1w1w1w1u1t1s1r1    ",
"    q1p1o1n1m1m1m3l1l1l1l1l1l1l1m1m1m1m1m1m1m1m1m1m1u1t1s1k1    ",
"    j1i1h1g1f1f1f1f1f1f1f1f1f1f1f1f1f1f1f1f1f1f1f1f1e1d1c1b1    ",
"    a1Z1Y1X1W1W1W1W1W1W1W1W1W1W1W1W1W1W1W1W1W1W1W1W1e1d1c1b1    ",
"    V1U1T1S1R1Q1P1O1N1M1L1K1J1I1H1G1F1E1D1C1C1C1C1B1A1d1c1b1    ",
"    ;1:191817161514131211101z0y0x0w0v0u0t0s0r0q0p0o0n0m0l0k0    ",
"    76q5j0i0h0g0f0e0d0c0b0a0Z0Y0X0W0V0U0T0S0R0Q0P0O0N0M0L0b1    ",
"    76767676K0J0I0I0H0G0F0E0D0C0B0A0;0:090807060504030201000    ",
"                                                                ",
"                                                                "};
