/* XPM */
static char *image[] = {
"48 48 160 2",
"   c None",
"00 c #5b5b5b",
"10 c #6a6a6a",
"20 c #5f5f5f",
"30 c #8e8e8e",
"40 c #666666",
"50 c #929292",
"60 c #939393",
"70 c #696969",
"80 c #959595",
"90 c #6c6c6c",
":0 c #797979",
";0 c #363636",
"A0 c #3c3c3c",
"B0 c #878787",
"C0 c #989898",
"D0 c #7b7b7b",
"E0 c #707070",
"F0 c #7d7d7d",
"G0 c #6e6e6e",
"H0 c #737373",
"I0 c #616161",
"J0 c #747474",
"K0 c #9d9d9d",
"L0 c #545454",
"M0 c #777777",
"N0 c #9f9f9f",
"O0 c #656565",
"P0 c #454545",
"Q0 c #646464",
"R0 c #7a7a7a",
"S0 c #7c7c7c",
"T0 c #a1a1a1",
"U0 c #7f7f7f",
"V0 c #a4a4a4",
"W0 c #828282",
"X0 c #8b8b8b",
"Y0 c #848484",
"Z0 c #868686",
"a0 c #a8a8a8",
"b0 c #888888",
"c0 c #919191",
"d0 c #aaaaaa",
"e0 c #8c8c8c",
"f0 c #acacac",
"g0 c #b4b4b4",
"h0 c #b6b6b6",
"i0 c #b9b9b9",
"j0 c #8f8f8f",
"k0 c #969696",
"l0 c #afafaf",
"m0 c #b1b1b1",
"n0 c #909090",
"o0 c #979797",
"p0 c #f4f4f4",
"q0 c #f3f3f3",
"r0 c #f1f1f1",
"s0 c #949494",
"t0 c #999999",
"u0 c #a6a6a6",
"v0 c #9a9a9a",
"w0 c #9c9c9c",
"x0 c #e8bb74",
"y0 c #191919",
"z0 c #9b9b9b",
"01 c #9e9e9e",
"11 c #e6a965",
"21 c #f0c178",
"31 c #e6a966",
"41 c #a0a0a0",
"51 c #d06e36",
"61 c #c75a28",
"71 c #d06f36",
"81 c #a2a2a2",
"91 c #f2f2f2",
":1 c #e28e2d",
";1 c #a3a3a3",
"A1 c #b88340",
"B1 c #e8a34b",
"C1 c #a5a5a5",
"D1 c #d98246",
"E1 c #edb76a",
"F1 c #bd9358",
"G1 c #a7a7a7",
"H1 c #9d4120",
"I1 c #c44d22",
"J1 c #a63f14",
"K1 c #8c3308",
"L1 c #722d0c",
"M1 c #a9a9a9",
"N1 c #421b09",
"O1 c #4e1c04",
"P1 c #421c09",
"Q1 c #ababab",
"R1 c #3d3d3d",
"S1 c #1a1a1a",
"T1 c #3b3b3b",
"U1 c #adadad",
"V1 c #aeaeae",
"W1 c #b0b0b0",
"X1 c #b7b7b7",
"Y1 c #b5b5b5",
"Z1 c #b3b3b3",
"a1 c #b2b2b2",
"b1 c #eeeeee",
"c1 c #f0f0f0",
"d1 c #efefef",
"e1 c #ededed",
"f1 c #ececec",
"g1 c #b8b8b8",
"h1 c #bababa",
"i1 c #bcbcbc",
"j1 c #e0e0e0",
"k1 c #dddddd",
"l1 c #dbdbdb",
"m1 c #bbbbbb",
"n1 c #bebebe",
"o1 c #c0c0c0",
"p1 c #c3c3c3",
"q1 c #c5c5c5",
"r1 c #c8c8c8",
"s1 c #cacaca",
"t1 c #cdcdcd",
"u1 c #cfcfcf",
"v1 c #d1d1d1",
"w1 c #d4d4d4",
"x1 c #d6d6d6",
"y1 c #d9d9d9",
"z1 c #e5e5e5",
"02 c #e2e2e2",
"12 c #bdbdbd",
"22 c #bfbfbf",
"32 c #c1c1c1",
"42 c #c2c2c2",
"52 c #c4c4c4",
"62 c #c6c6c6",
"72 c #c7c7c7",
"82 c #c9c9c9",
"92 c #cbcbcb",
":2 c #cccccc",
";2 c #cecece",
"A2 c #d0d0d0",
"B2 c #d2d2d2",
"C2 c #d3d3d3",
"D2 c #d5d5d5",
"E2 c #d7d7d7",
"F2 c #d8d8d8",
"G2 c #dadada",
"H2 c #dcdcdc",
"I2 c #dedede",
"J2 c #e7e7e7",
"K2 c #ebebeb",
"L2 c #eaeaea",
"M2 c #e9e9e9",
"N2 c #e8e8e8",
"O2 c #e6e6e6",
"P2 c #e4e4e4",
"Q2 c #e3e3e3",
"R2 c #e1e1e1",
"S2 c #dfdfdf",
"                                                                                                ",
"                                                                                                ",
"          S2R2Q2P2O2N2M2L2K2K2L2M2J2O2P2Q2R2S2I2H2G2F2E2D2C2B2A2;2:2928272625242322212          ",
"        H2I2S2R202Q2P2z1O2O2O2O2z1P2Q202R2S2I2H2G2y1E2x1w1B2v1u1t1:2s1r172q1p142o1n112m1        ",
"        y1l1H2k1I2S2j1R2R2R2R2R2R2j1S2I2k1H2l1y1F2E2D2w1B2v1u1t1:2s18272q15242322212i1h1        ",
"        x1E2F2y1G2l1H2H2H2H2H2H2H2l1l1G2y1F2E2F2F2F2F2F2F2F2E2D2C2v1;292r152322212i1h1g1        ",
"      k1j1j1R2020202Q2Q2Q2Q2Q2Q2Q2Q202Q2P2z1O2J2N2M2L2f1e1d1c1b1K2M2O2Q2j1k1G2E2w1A2t1t1r1      ",
"      12a1a1a1a1a1a1a1a1a1a1a1a1a1a1a1a1a1a1Z1Y1X1h1i1n12232323222n1i1h1X1Y1Z1a1a1a1a1a1X1      ",
"      W1W1W1W1W1W1W1W1W1W1W1W1W1W1W1W1W1W1W1W1W1W1W1W1W1W1W1W1W1W1W1W1W1W1W1W1W1W1W1W1W1W1      ",
"      V1V1V1V1V1V1V1V1V1V1V1V1V1V1V1V1V1V1V1V1V1V1V1V1V1V1V1V1V1V1V1V1V1V1V1V1V1V1V1V1V1V1      ",
"      U1U1U1T1S1S1S1S1S1S1S1S1S1S1S1S1S1S1S1S1S1S1S1S1S1S1S1S1S1S1S1S1S1S1S1S1S1S1R1U1U1U1      ",
"      Q1Q1Q1S1S1S1S1P1O1O1O1O1O1O1O1O1O1O1O1O1O1O1O1O1O1O1O1O1O1O1O1O1O1O1N1S1S1S1S1Q1Q1Q1      ",
"      M1M1M1S1S1S1L1K1K1K1K1K1K1K1K1K1K1K1K1K1K1K1K1K1K1K1K1J1I1I1I1I1I1I1I1I1H1S1S1M1M1M1      ",
"      G1G1G1S1F1E1E1E1E1E1E1E1E1E1D1I1I1I1I1I1I1I1I1I1I1I1I1I1I1I1I1I1I1I1I1I1I1S1S1G1G1G1      ",
"      C1C1C1S1B1B1B1B1B1B1B1B1B1B1B1B1B1B1B1B1B1B1B1B1B1B1B1B1B1B1B1B1B1B1B1B1B1A1S1C1C1C1      ",
"      ;1;1;1S1:1:1919191919191919191919191919191919191919191919191919191919191:1:1S1;1;1;1      ",
"      818181S171616161616161616161616161616161616161616161616161616161616161616151S1818181      ",
"      414141S131212121212121212121212121212121212121212121212121212121212121212111S1414141      ",
"      0101z0y0x0x0x0x0x0x0x0x0x0x0x0x0x0x0x0x0x0x0x0x0x0x0x0x0x0x0x0x0x0x0x0x0x0x0y0z00101      ",
"      w0v0G1;2B2B2B2B2B2B2B2B2B2B2B2B2B2C2w1D2E2F2y1G2l1l1l1G2y1F2E2D2w1C2B2B2B2B2;2u0v0w0      ",
"      t0s0B2P2P2P2P2P2P2P2P2P2P2P2z1O2J2M2L2f1e1d1c1r0q0p0q0r0c1d1e1f1L2M2J2O2z1P2P2B2s0t0      ",
"      o0n092q1q1q1q1q1q1q122222222n1121212n1o132425252q1q1524232n1m1g1Y1a1m0W1l0l0V1m1n0o0      ",
"      k0j0q1q1q1q1q1q1q1q132n1n112i1i1m1h1h1i0g1g1X1h0h0Y1g0g0Z1a1a1m0W1W1l0V1V1U1f0f0j0k0      ",
"      s0e0q1q1q1q1q1q1q1523212i1m1m1h1i0i0g1X1X1h0Y1Y1g0Z1Z1a1m0m0W1l0l0V1U1U1f0Q1Q1d0e0s0      ",
"      c0b052525252p1p1424242i1h1h1i0g1g1X1h0h0Y1g0g0Z1a1a1m0W1W1l0V1V1U1f0f0Q1d0d0M1a0b0c0      ",
"      j0Z05252p1424232o1o122m1i0g1X1X1h0Y1Y1g0Z1Z1a1m0m0W1l0l0V1U1U1f0Q1Q1d0M1M1a0G1G1Z0j0      ",
"      e0Y0p1423232o12222n112i1X1h0h0Y1g0g0Z1a1a1m0W1W1l0V1V1U1f0f0Q1d0d0M1a0a0G1u0C1C1Y0e0      ",
"      X0W032o1o122n1n112i1i1m1h0Y1g0m0l0l0V1V1U1f0f0Q1d0d0d0Q1Q1d0M1M1a0G1G1u0C1V0V0;1W0X0      ",
"      b0U02222n11212i1m1m1h1i0X1Z1i1w1E2E2E2E2E2E2E2E2E2E2C2h0M1a0a0G1u0C1C1V0;1;181T0U0b0      ",
"      Z0S012i1m1m1h1i0i0g1X1X1X1f0v1u1u1u1u1u1u1u1u1u1u1u1u1A281G1u0C1V0V0;18181T04141S0Z0      ",
"      Y0R0m1h1h1i0g1g1X1h0h0Y1g0d0C2t1Q0P0P0P0P0P0P0P0P0O0t1C201C1V0;1;181T0T041N0N001R0Y0      ",
"      W0M0i0i0g1X1X1h0Y1Y1g0Z1Z1M1v192L0N2q0q0q0q0q0q0J2L092v1K0;18181T04141N00101K0w0M0W0      ",
"      U0J0g1X1h0h0Y1g0g0Z1a1a1m0a0;282I0J2J2J2J2J2J2J2J2I082;2z0T0T041N0N001K0K0w0z0z0J0U0      ",
"      U0H0Y1g0g0Z1a1a1m0m0m0W1l0G19272G0l1l1l1l1l1l1l1l1G07292t041N00101K0w0w0z0v0v0t0H0U0      ",
"      F0E0Z1Z1a1m0m0W1l0l0V1U1U1C17252D052u1u1u1u1u1u152D05272C001K0K0w0z0z0v0t0t0C0o0E0F0      ",
"      D0G0a1m0W1W1l0V1V1U1f0f0Q1;15242B0A0;0;0;0;0;0;0A0B04252k0w0w0z0v0v0t0C0C0o0k0k0G0D0      ",
"      :090l0V1V1U1f0f0Q1d0d0M1a04132o1V0s0s0s0s0s0s0s0s0V0o132s0z0v0t0t0C0o0o0k08080s090:0      ",
"      M070U1U1f0Q1Q1d0M1M1a0G1u0N0i0n1r19292929292929292r1n1g1s0t0C0C0o0k0k080s0s0605070M0      ",
"      J040f0Q1d0d0M1a0G1G1u0C1C1;141g112121212121212121212g1t0o0o0o0k08080s0606050c0c040J0      ",
"      H0O0M1a0a0G1u0C1C1V0;1;181T0N0C0s060605050c0n0n0j030n080k0k080s0s0605050c0n0n0j0O0H0      ",
"      G020G1u0u0C1V0V0;18181T04141N00101w0z0z0v0t0t0C0o0o0k08080s0606050c0c0n0j0j0303020G0      ",
"      1000V0V0;18181T04141N00101K0w0w0z0v0v0t0C0C0o0k0k080s0s0605050c0n0n0j030303030300070      ",
"          ;181T0T041N0N001K0K0w0z0z0v0t0t0C0o0o0k08080s0606050c0c0n0j0j030303030303030          ",
"          814141N00101K0w0w0z0v0v0t0C0C0o0k0k080s0s0605050c0n0n0j0303030303030303030j0          ",
"          41C1C1C1C1C1C1u0u0u0G1G1u0G1G1G1a0a0a0a0G1C1V081T04101K0w0z0v0v0t0C0o0k080j0          ",
"                                                                                                ",
"                                                                                                ",
"                                                                                                "};
