/* XPM */
static char *image[] = {
"48 48 66 2",
"   c None",
"00 c #585955",
"10 c #70716f",
"20 c #585b56",
"30 c #e7e7e7",
"40 c #595a56",
"50 c #70716e",
"60 c #d7d7d7",
"70 c #dddddd",
"80 c #dedede",
"90 c #8a8a8a",
":0 c #dfdfdf",
";0 c #e0e0e0",
"A0 c #e1e1e1",
"B0 c #e2e2e2",
"C0 c #e3e3e3",
"D0 c #e4e4e4",
"E0 c #898989",
"F0 c #e5e5e5",
"G0 c #e6e6e6",
"H0 c #e8e8e8",
"I0 c #e9e9e9",
"J0 c #eaeaea",
"K0 c #d8d9d8",
"L0 c #767874",
"M0 c #585a55",
"N0 c #efefef",
"O0 c #f0f0f0",
"P0 c #f2f2f2",
"Q0 c #f3f3f3",
"R0 c #878787",
"S0 c #f5f5f5",
"T0 c #ececec",
"U0 c #f6f6f6",
"V0 c #ededed",
"W0 c #717171",
"X0 c #707070",
"Y0 c #c49d47",
"Z0 c #c69e48",
"a0 c #c49d48",
"b0 c #c49d49",
"c0 c #c79f49",
"d0 c #6f6f6f",
"e0 c #888888",
"f0 c #858585",
"g0 c #c39c46",
"h0 c #c59d46",
"i0 c #6a6a6a",
"j0 c #c39d47",
"k0 c #c59e48",
"l0 c #c69e47",
"m0 c #6b6b6b",
"n0 c #868686",
"o0 c #7e7e7e",
"p0 c #646464",
"q0 c #636363",
"r0 c #656565",
"s0 c #808080",
"t0 c #575954",
"u0 c #696a68",
"v0 c #7b7b7b",
"w0 c #6b6c6a",
"x0 c #575855",
"y0 c #555853",
"z0 c #565853",
"01 c #555852",
"                                                                                                ",
"                              01z0z0z0z0z0z0z0z0z0z0z0z0z0z0z0z0z0z0z0z0z0z0z0z0z0z0z0z0z0y0    ",
"                            x0w0v0v0v0v0v0v0v0v0v0v0v0v0v0v0v0v0v0v0v0v0v0v0v0v0v0v0v0v0v0u0t0  ",
"                            z0s0r0q0q0q0q0q0q0q0q0q0q0q0q0q0q0q0q0q0q0q0q0q0q0q0q0q0q0q0p0o0z0  ",
"                            z0n0m0m0m0m0m0m0m0m0m0m0m0m0m0m0m0m0m0m0m0m0l0k0m0l0j0i0h0g0i0f0z0  ",
"                            z0e0d0d0d0d0d0d0d0d0d0d0d0d0d0d0d0d0d0d0d0d0c0b0d0c0a0d0Z0Y0d0e0z0  ",
"                            z0e0X0X0X0X0X0X0X0X0X0X0X0X0X0X0X0X0X0X0X0X0X0X0X0X0X0X0X0X0X0e0z0  ",
"                            z0e0W0W0W0W0W0W0W0W0W0W0W0W0W0W0W0W0W0W0W0W0W0W0W0W0W0W0W0W0W0e0z0  ",
"                            z0e0V0U0U0U0U0U0U0U0U0U0U0U0U0U0U0U0U0U0U0U0U0U0U0U0U0U0U0U0T0e0z0  ",
"                            z0e0S0S0S0S0S0S0S0S0S0S0S0S0S0S0S0S0S0S0S0S0S0S0S0S0S0S0S0S0S0R0z0  ",
"                            z0e0Q0Q0Q0Q0Q0Q0Q0Q0Q0Q0Q0Q0Q0Q0Q0Q0Q0Q0Q0Q0Q0Q0Q0Q0Q0Q0Q0Q0Q0e0z0  ",
"                            z0e0P0P0P0P0P0P0P0P0P0P0P0P0P0P0P0P0P0P0P0P0P0P0P0P0P0P0P0P0P0e0z0  ",
"                            z0e0O0O0O0O0O0O0O0O0O0O0O0O0O0O0O0O0O0O0O0O0O0O0O0O0O0O0O0O0O0e0z0  ",
"                            z0R0N0N0N0N0N0N0N0N0N0N0N0N0N0N0N0N0N0N0N0N0N0N0N0N0N0N0N0N0N0R0z0  ",
"                            z0e0V0V0V0V0V0V0V0V0V0V0V0V0V0V0V0V0V0V0V0V0V0V0V0V0V0V0V0V0V0e0z0  ",
"                            z0e0T0T0T0T0T0T0T0T0T0T0T0T0T0T0T0T0T0T0T0T0T0T0T0T0T0T0T0T0T0e0z0  ",
"    01z0z0z0z0z0z0z0z0z0z0z0z0z0z0z0z0z0z0z0z0z0z0z0z0z0z0z0z0M0L0K0J0J0J0J0J0J0J0J0J0J0J0e0z0  ",
"  x0w0v0v0v0v0v0v0v0v0v0v0v0v0v0v0v0v0v0v0v0v0v0v0v0v0v0v0v0v0v0w0L0I0I0I0I0I0I0I0I0I0I0I0e0z0  ",
"  z0s0r0q0q0q0q0q0q0q0q0q0q0q0q0q0q0q0q0q0q0q0q0q0q0q0q0q0q0q0p0o0M0H0H0H0H0H0H0H0H0H0H0H0e0z0  ",
"  z0n0m0m0m0m0m0m0m0m0m0m0m0m0m0m0m0m0m0m0m0m0l0k0m0l0j0i0h0g0i0f0z0G0G0G0G0G0G0G0G0G0G0G0e0z0  ",
"  z0e0d0d0d0d0d0d0d0d0d0d0d0d0d0d0d0d0d0d0d0d0c0b0d0c0a0d0Z0Y0d0e0z0F0F0F0F0F0F0F0F0F0F0F0E0z0  ",
"  z0e0X0X0X0X0X0X0X0X0X0X0X0X0X0X0X0X0X0X0X0X0X0X0X0X0X0X0X0X0X0e0z0D0D0D0D0D0D0D0D0D0D0D0E0z0  ",
"  z0e0W0W0W0W0W0W0W0W0W0W0W0W0W0W0W0W0W0W0W0W0W0W0W0W0W0W0W0W0W0e0z0C0C0C0C0C0C0C0C0C0C0C0E0z0  ",
"  z0e0V0U0U0U0U0U0U0U0U0U0U0U0U0U0U0U0U0U0U0U0U0U0U0U0U0U0U0U0T0e0z0B0B0B0B0B0B0B0B0B0B0B0E0z0  ",
"  z0e0S0S0S0S0S0S0S0S0S0S0S0S0S0S0S0S0S0S0S0S0S0S0S0S0S0S0S0S0S0R0z0A0A0;0;0;0;0;0;0;0;0;0E0z0  ",
"  z0e0Q0Q0Q0Q0Q0Q0Q0Q0Q0Q0Q0Q0Q0Q0Q0Q0Q0Q0Q0Q0Q0Q0Q0Q0Q0Q0Q0Q0Q0e0z0:0:0:0:0:0:0:0:0:0:0:090z0  ",
"  z0e0P0P0P0P0P0P0P0P0P0P0P0P0P0P0P0P0P0P0P0P0P0P0P0P0P0P0P0P0P0e0z0808080808080808080808090z0  ",
"  z0e0O0O0O0O0O0O0O0O0O0O0O0O0O0O0O0O0O0O0O0O0O0O0O0O0O0O0O0O0O0e0z07070707070707070707060e0t0  ",
"  z0R0N0N0N0N0N0N0N0N0N0N0N0N0N0N0N0N0N0N0N0N0N0N0N0N0N0N0N0N0N0R0z090909090909090909090E05040  ",
"  z0e0V0V0V0V0V0V0V0V0V0V0V0V0V0V0V0V0V0V0V0V0V0V0V0V0V0V0V0V0V0e0z0z0z0z0z0z0z0z0z0z0z0t0t0    ",
"  z0e0T0T0T0T0T0T0T0T0T0T0T0T0T0T0T0T0T0T0T0T0T0T0T0T0T0T0T0T0T0e0z0                            ",
"  z0e0J0J0J0J0J0J0J0J0J0J0J0J0J0J0J0J0J0J0J0J0J0J0J0J0J0J0J0J0J0e0z0                            ",
"  z0e0I0I0I0I0I0I0I0I0I0I0I0I0I0I0I0I0I0I0I0I0I0I0I0I0I0I0I0I0I0e0z0                            ",
"  z0e0H0H0H0H0H0H0H0H0H0H0H0H0H0H0H0H0H0H0H0H0H0H0H0H0H0H0H0H0H0e0z0                            ",
"  z0E0303030303030303030303030303030303030G0G0G0G0G0G0G0G0G0G0G0e0z0                            ",
"  z0E0F0F0F0F0F0F0F0F0F0F0F0F0F0F0F0F0F0F0F0F0F0F0F0F0F0F0F0F0F0E0z0                            ",
"  z0E0D0D0D0D0D0D0D0D0D0D0D0D0D0D0D0D0D0D0D0D0D0D0D0D0D0D0D0D0D0E0z0                            ",
"  z0E0C0C0C0C0C0C0C0C0C0C0C0C0C0C0C0C0C0C0C0C0C0C0C0C0C0C0C0C0C0E0z0                            ",
"  z0E0B0B0B0B0B0B0B0B0B0B0B0B0B0B0B0B0B0B0B0B0B0B0B0B0B0B0B0B0B0E0z0                            ",
"  z090A0A0A0A0A0A0A0A0A0A0A0A0A0A0A0A0A0A0A0A0;0;0;0;0;0;0;0;0;0E0z0                            ",
"  z090:0:0:0:0:0:0:0:0:0:0:0:0:0:0:0:0:0:0:0:0:0:0:0:0:0:0:0:0:090z0                            ",
"  z090808080808080808080808080808080808080808080808080808080808090z0                            ",
"  t0E06070707070707070707070707070707070707070707070707070707060e0t0                            ",
"  2010E0909090909090909090909090909090909090909090909090909090E05040                            ",
"    00t0z0z0z0z0z0z0z0z0z0z0z0z0z0z0z0z0z0z0z0z0z0z0z0z0z0z0z0t0t0                              ",
"                                                                                                ",
"                                                                                                ",
"                                                                                                "};
