/* XPM */
static char *image[] = {
"64 64 454 2",
"   c None",
"00 c #0d0e14",
"10 c #0d1728",
"20 c #0b1e34",
"30 c #0b223c",
"40 c #0c233f",
"50 c #0c2039",
"60 c #0b1a2d",
"70 c #0d0f17",
"80 c #0c0d0d",
"90 c #090a0d",
":0 c #09090a",
";0 c #383a3a",
"A0 c #374049",
"B0 c #37485c",
"C0 c #374f69",
"D0 c #374f68",
"E0 c #374758",
"F0 c #38393a",
"G0 c #0b0b0b",
"H0 c #8a8e8e",
"I0 c #8b8f8f",
"J0 c #3d3e3e",
"K0 c #202830",
"L0 c #1e4876",
"M0 c #1d5796",
"N0 c #1d538f",
"O0 c #202b36",
"P0 c #202222",
"Q0 c #121212",
"R0 c #1f3b5b",
"S0 c #1b6ec9",
"T0 c #1b73d3",
"U0 c #1c64b3",
"V0 c #1f2224",
"W0 c #121213",
"X0 c #1d538b",
"Y0 c #1a83f2",
"Z0 c #1e4a79",
"a0 c #212222",
"b0 c #1a84f2",
"c0 c #1b78d8",
"d0 c #212425",
"e0 c #212323",
"f0 c #121313",
"g0 c #1a85f2",
"h0 c #203c58",
"i0 c #222424",
"j0 c #1b7ddc",
"k0 c #1c70c3",
"l0 c #1d6fc0",
"m0 c #1b79d6",
"n0 c #1a87f2",
"o0 c #1e5a95",
"p0 c #232425",
"q0 c #181919",
"r0 c #131414",
"s0 c #1c77d0",
"t0 c #204f7d",
"u0 c #232f3c",
"v0 c #23313f",
"w0 c #1e5c97",
"x0 c #1b87f0",
"y0 c #1a88f3",
"z0 c #1c72c5",
"01 c #242526",
"11 c #19191a",
"21 c #141414",
"31 c #1b7dda",
"41 c #21476b",
"51 c #242728",
"61 c #223e5a",
"71 c #1a89f3",
"81 c #1b84e9",
"91 c #242627",
":1 c #141415",
";1 c #1f66a8",
"A1 c #242c32",
"B1 c #224563",
"C1 c #1b8af2",
"D1 c #1b8bf3",
"E1 c #242e37",
"F1 c #252728",
"G1 c #191b1b",
"H1 c #1f68a9",
"I1 c #1b8cf3",
"J1 c #243747",
"K1 c #262828",
"L1 c #1a1b1b",
"M1 c #141515",
"N1 c #253848",
"O1 c #1b8df3",
"P1 c #253b4e",
"Q1 c #272829",
"R1 c #1b1b1c",
"S1 c #151516",
"T1 c #1e7acc",
"U1 c #1b8ef4",
"V1 c #253a4c",
"W1 c #27292a",
"X1 c #1b1c1c",
"Y1 c #216299",
"Z1 c #1b90f4",
"a1 c #263643",
"b1 c #282a2b",
"c1 c #151616",
"d1 c #245075",
"e1 c #1b91f4",
"f1 c #292e33",
"g1 c #292b2c",
"h1 c #161617",
"i1 c #27455e",
"j1 c #1b92f4",
"k1 c #1c8ae5",
"l1 c #2a2c2d",
"m1 c #1c1e1e",
"n1 c #161717",
"o1 c #283e51",
"p1 c #1c94f4",
"q1 c #207cc6",
"r1 c #2a2c2e",
"s1 c #283d4d",
"t1 c #1c95f5",
"u1 c #236aa4",
"v1 c #2b2d2f",
"w1 c #1d1e1f",
"x1 c #161718",
"y1 c #2a3f4f",
"z1 c #1c96f5",
"02 c #26567a",
"12 c #2c2e2f",
"22 c #1e1f1f",
"32 c #28465c",
"42 c #1c97f5",
"52 c #293f4e",
"62 c #2c2f30",
"72 c #171818",
"82 c #285170",
"92 c #1c99f5",
":2 c #1d8fe2",
";2 c #2d2f31",
"A2 c #1e1f21",
"B2 c #171819",
"C2 c #26618c",
"D2 c #1c9af5",
"E2 c #2274b0",
"F2 c #2e3032",
"G2 c #1f2021",
"H2 c #181819",
"I2 c #2374af",
"J2 c #1c9bf5",
"K2 c #285777",
"L2 c #208dd8",
"M2 c #1d9df6",
"N2 c #1d9af1",
"O2 c #2e3940",
"P2 c #2e3133",
"Q2 c #18191a",
"R2 c #2f3d45",
"S2 c #1d9ef6",
"T2 c #227dbc",
"U2 c #2f3234",
"V2 c #181a1a",
"W2 c #2a5a7a",
"X2 c #1d9ff6",
"Y2 c #2a5674",
"Z2 c #2f3133",
"a2 c #212223",
"b2 c #191a1a",
"c2 c #247bb4",
"d2 c #1da1f6",
"e2 c #1f97e5",
"f2 c #32363a",
"g2 c #303234",
"h2 c #212224",
"i2 c #31393e",
"j2 c #1e9ced",
"k2 c #1da2f6",
"l2 c #286c97",
"m2 c #303335",
"n2 c #313435",
"o2 c #212324",
"p2 c #191a1b",
"q2 c #2b5d7b",
"r2 c #1da3f7",
"s2 c #1ea0f1",
"t2 c #323f48",
"u2 c #323536",
"v2 c #313335",
"w2 c #313436",
"x2 c #222425",
"y2 c #2389c9",
"z2 c #1da4f7",
"03 c #2776a5",
"13 c #333638",
"23 c #5e2c33",
"33 c #7f252e",
"43 c #393437",
"53 c #323537",
"63 c #323436",
"73 c #393336",
"83 c #7e252d",
"93 c #542025",
":3 c #314c5d",
";3 c #1ea6f7",
"A3 c #1fa1ef",
"B3 c #33424c",
"C3 c #652b32",
"D3 c #6a2931",
"E3 c #343538",
"F3 c #333538",
"G3 c #333437",
"H3 c #692a31",
"I3 c #b81a27",
"J3 c #c71625",
"K3 c #5c2026",
"L3 c #1a1b1c",
"M3 c #2681b7",
"N3 c #1ea7f7",
"O3 c #29709a",
"P3 c #34373a",
"Q3 c #343639",
"R3 c #652d34",
"S3 c #a81e2b",
"T3 c #542f35",
"U3 c #523035",
"V3 c #a71e2b",
"W3 c #c81928",
"X3 c #c81726",
"Y3 c #5c2027",
"Z3 c #1a1c1d",
"a3 c #314d5d",
"b3 c #1ea7f5",
"c3 c #1ea8f7",
"d3 c #219be2",
"e3 c #353e43",
"f3 c #353739",
"g3 c #343739",
"h3 c #662d33",
"i3 c #c81828",
"j3 c #ca1e2e",
"k3 c #cd2a39",
"l3 c #c91828",
"m3 c #5d2028",
"n3 c #258bc3",
"o3 c #1eaaf7",
"p3 c #2f5e78",
"q3 c #373a3c",
"r3 c #36393b",
"s3 c #35383a",
"t3 c #672e35",
"u3 c #ca1b2b",
"v3 c #cd2534",
"w3 c #ce2b3a",
"x3 c #ca1929",
"y3 c #1b1c1d",
"z3 c #305a73",
"04 c #1eabf8",
"14 c #2689bf",
"24 c #35383b",
"34 c #35373a",
"44 c #672f36",
"54 c #ce2938",
"64 c #cf2b3a",
"74 c #cb1a2a",
"84 c #5e2228",
"94 c #1b1c1e",
":4 c #373e44",
";4 c #229cdf",
"A4 c #1eacf8",
"B4 c #20a5eb",
"C4 c #364650",
"D4 c #36383b",
"E4 c #36393c",
"F4 c #683037",
"G4 c #cc1b2c",
"H4 c #5e2329",
"I4 c #2a79a4",
"J4 c #1eadf8",
"K4 c #30627e",
"L4 c #37393c",
"M4 c #6a3139",
"N4 c #d02b3b",
"O4 c #cd1c2d",
"P4 c #5f242b",
"Q4 c #1c1d1e",
"R4 c #34596c",
"S4 c #1faef7",
"T4 c #1faff8",
"U4 c #2a82af",
"V4 c #373a3d",
"W4 c #383b3d",
"X4 c #383a3d",
"Y4 c #6a3239",
"Z4 c #d12a3a",
"a4 c #ce1d2e",
"b4 c #60242c",
"c4 c #384750",
"d4 c #22a4e5",
"e4 c #1fb0f8",
"f4 c #2598d2",
"g4 c #394146",
"h4 c #393d3f",
"i4 c #383c3f",
"j4 c #383c3e",
"k4 c #373b3e",
"l4 c #6a323a",
"m4 c #d22a3b",
"n4 c #cf1e30",
"o4 c #60242d",
"p4 c #1c1e1f",
"q4 c #3b4046",
"r4 c #2694cb",
"s4 c #1fb1f9",
"t4 c #22a5e7",
"u4 c #384a54",
"v4 c #3a3d41",
"w4 c #393c40",
"x4 c #393b3f",
"y4 c #383b3f",
"z4 c #383b3e",
"05 c #6b323b",
"15 c #d22a3c",
"25 c #d01f31",
"35 c #62252d",
"45 c #2a89b6",
"55 c #1fb3f9",
"65 c #21aced",
"75 c #375463",
"85 c #3a3d3f",
"95 c #393c3e",
":5 c #393b3e",
";5 c #6c343a",
"A5 c #d32a3c",
"B5 c #d12032",
"C5 c #62262d",
"D5 c #1d1e20",
"E5 c #2c82ab",
"F5 c #1fb4f9",
"G5 c #21aff0",
"H5 c #365a6d",
"I5 c #3b3d40",
"J5 c #3a3c3f",
"K5 c #393c3f",
"L5 c #6c343c",
"M5 c #d42b3d",
"N5 c #d22134",
"O5 c #62272e",
"P5 c #3d4145",
"Q5 c #2b85ae",
"R5 c #1fb5f9",
"S5 c #21aeee",
"T5 c #365b6e",
"U5 c #3c3f42",
"V5 c #3a3e40",
"W5 c #393d40",
"X5 c #3a3d40",
"Y5 c #6d353d",
"Z5 c #d32235",
"a5 c #63282f",
"b5 c #1e1f20",
"c5 c #3d484e",
"d5 c #2892c1",
"e5 c #1fb7f9",
"f5 c #22abe7",
"g5 c #385867",
"h5 c #3e4245",
"i5 c #3b3f42",
"j5 c #3b3f41",
"k5 c #3a3e41",
"l5 c #d52a3c",
"m5 c #d42336",
"n5 c #632830",
"o5 c #385a6a",
"p5 c #25a6de",
"q5 c #279ed2",
"r5 c #3c4e58",
"s5 c #3f4246",
"t5 c #3c3e42",
"u5 c #3b3e41",
"v5 c #6e363e",
"w5 c #d62a3d",
"x5 c #d52438",
"y5 c #652830",
"z5 c #1e2021",
"06 c #2e85aa",
"16 c #20b7f7",
"26 c #20b9fa",
"36 c #20b8f9",
"46 c #2e84a9",
"56 c #3f454b",
"66 c #3f4347",
"76 c #3e4145",
"86 c #3b3e43",
"96 c #3b3e42",
":6 c #6e3741",
";6 c #d72a3e",
"A6 c #d62539",
"B6 c #652932",
"C6 c #1e2022",
"D6 c #20bafa",
"E6 c #26a6dc",
"F6 c #386073",
"G6 c #3e4246",
"H6 c #3c4044",
"I6 c #3c3f43",
"J6 c #3b3f43",
"K6 c #3b4043",
"L6 c #703941",
"M6 c #d82a3e",
"N6 c #d7263a",
"O6 c #662a32",
"P6 c #1f2022",
"Q6 c #25aadf",
"R6 c #34738c",
"S6 c #40464a",
"T6 c #414548",
"U6 c #3f4245",
"V6 c #3c4043",
"W6 c #3c4143",
"X6 c #3d4043",
"Y6 c #713941",
"Z6 c #d82a3d",
"a6 c #d8273b",
"b6 c #672a32",
"c6 c #1f2122",
"d6 c #42474a",
"e6 c #424649",
"f6 c #3f4447",
"g6 c #3d4144",
"h6 c #3d4143",
"i6 c #713943",
"j6 c #d92a3f",
"k6 c #d9283d",
"l6 c #202122",
"m6 c #42464a",
"n6 c #404448",
"o6 c #3d4045",
"p6 c #723b44",
"q6 c #da2a3f",
"r6 c #da293e",
"s6 c #672b34",
"t6 c #202123",
"u6 c #43474b",
"v6 c #414448",
"w6 c #733c45",
"x6 c #db2a3f",
"y6 c #682c35",
"z6 c #202223",
"07 c #43484c",
"17 c #6d3d45",
"27 c #b73244",
"37 c #602d37",
"47 c #25282a",
"                                                                                                                                ",
"                                                                                                                                ",
"                                                                                                                                ",
"                                                                                                                                ",
"                                                                                                                                ",
"                474737272727272727272727271707070707070707070707070707070707070707070707070707070707070707070707                ",
"                z6z6y6x6x6x6x6x6x6x6x6x6x6w6v6u6u6u6u6u6u6u6u6u6u6u6u6u6u6u6u6u6u6u6u6u6u6u6u6u6u6u6u6u6u6u6u6u6                ",
"                t6t6s6r6q6q6q6q6q6q6q6q6r6p6o6n6m6m6m6m6m6m6m6m6m6m6m6m6m6m6m6m6m6m6m6m6m6m6m6m6m6m6m6m6m6m6m6m6                ",
"                l6l6s6k6j6j6j6j6j6j6j6j6k6i6h6g6f6e6e6e6e6e6e6e6e6e6e6e6e6e6e6e6e6e6e6e6e6e6e6e6e6e6e6e6e6e6e6d6                ",
"                c6c6b6a6Z6Z6Z6Z6Z6Z6Z6Z6a6Y6X6W6V6U6T6T6T6T6T6T6T6T6T6T6T6T6T6T6T6T6T6T6T6T6T6T6T6T6T6T6T6S6R6Q6                ",
"                P6P6O6N6M6M6M6M6M6M6M6M6N6L6K6J6I6H6G6n6n6n6n6n6n6n6n6n6n6n6n6n6n6n6n6n6n6n6n6n6n6n6n6n6F6E6D6D6                ",
"                C6C6B6A6;6;6;6;6;6;6;6;6A6:69696J6I6867666666666666666666666666666666666666666666666564636261606                ",
"                z5z5y5x5w5w5w5w5w5w5w5w5x5v5u596t59696t576s5s5s5s5s5s5s5s5s5s5s5s5s5s5s5s5s5s5s5s5r5q53636p5o5s5                ",
"                z5z5n5m5l5l5l5l5l5l5l5l5m5v5k5u5k5k5u5j5i5g6h5h5h5h5h5h5h5h5h5h5h5h5h5h5h5h5h5h5g5f5e5e5d5c5h5h5                ",
"                b5b5a5Z5l5l5l5l5l5l5l5l5Z5Y5X5W5W5X5V5k5u5i5U5g6g6g6g6g6g6g6g6g6g6g6g6g6g6g6g6T5S5R5R5Q5P5g6g6g6                ",
"                b5b5O5N5M5M5M5M5M5M5M5M5N5L5K5K5J5X5X5I5u5X5I5U5X6X6X6X6X6X6X6X6X6X6X6X6X6X6H5G5F5F5E5X6X6X6X6X6                ",
"                D5D5C5B5A5A5A5A5A5A5A5A5B5;5:595K5K585X5K585X5X5u5U5U5U5U5U5U5U5U5U5U5U5U57565555545V6U5U5U5U5U5                ",
"                D5D5352515151515151515152505z4y4x4K5w4y4K5w4w4X5v4u596969696969696969696u4t4s4s4r4q4969696969696                ",
"                p4p4o4n4m4m4m4m4m4m4m4m4n4l4k4z4j4i4k4j4i4i4h4W5W5V5k5k5k5k5k5k5k5k5k5g4f4e4e4d4c4k5k5k5k5k5k5k5                ",
"                p4p4b4a4Z4Z4Z4Z4Z4Z4Z4Z4a4Y4X4W4z4V4W4z4z495K5K585X5X5X5X5X5X5X5X5X5X5U4T4T4S4R4X5X5X5X5X5X5X5X5                ",
"                Q4Q4P4O4N4N4N4N4N4N4N4N4O4M4V4V4L4V4V4V4z4z4z4K5K5K5K5K5K5K5K5K5K5K5K4J4J4J4I4K5K5K5K5K5K5K5K5K5                ",
"                Q4Q4H4G4N4N4N4N4N4N4N4N4G4F4E4D4E4E4E4V4V4V4z4z4z4z4z4z4z4z4z4z4z4C4B4A4A4;4:4z4z4z4z4z4z4z4z4z4                ",
"                949484746464645454646464744434242424E4E4E4V4V4V4V4V4V4V4V4V4V4V4V414040404z3V4V4V4V4V4V4V4V4V4V4                ",
"                y3y384x3w3w3v3u3u3v3w3w3x3t3s3s3s3r3r3r3q3q3q3q3q3q3q3q3q3q3q3q3p3o3o3o3n3q3q3q3q3q3q3q3q3q3q3q3                ",
"                y3y3m3l3k3j3l3i3i3l3j3k3l3h3g3f3s3s3s3r3r3r3r3r3r3r3r3r3r3r3r3e3d3c3c3b3a3r3r3r3r3r3r3r3r3r3r3r3                ",
"                Z3Z3Y3X3W3X3V3U3T3S3X3W3X3R3Q3P3P3P324242424242424242424242424O3N3N3N3M3242424242424242424242424                ",
"                L3L3K3J3I3H3G3F3F3E3D3I3J3C3Q3Q3Q334343434343434343434343434B3A3;3;3;3:3343434343434343434343434                ",
"                L3L39383736353535353534333231313g3g3g3g3g3g3g3g3g3g3g3g3g3g303z2z2z2y2g3g3g3g3g3g3g3g3g3g3g3g3g3                ",
"                L3L3x2w2v2w2w2w2w2w2w2u25353531313131313131313131313131313t2s2r2r2r2q213131313131313131313131313                ",
"                p2p2o253n2m2m2m2m2m2n2w2w2w2535353535353535353535353535353l2k2k2k2j2i253535353535353535353535353                ",
"                p2p2h26363v2g2g2g2v2v2v2v2636363636363636363636363636363f2e2d2d2d2c26363636363636363636363636363                ",
"                b2b2a2v2v2v2Z2Z2g2g2g2g2v2v2v2v2v2v2v2v2v2v2v2v2v2v2v2v2Y2X2X2X2X2W2v2v2v2v2v2v2v2v2v2v2v2v2v2v2                ",
"                V2V2z6m2m2m2m2U2U2U2U2m2m2m2m2m2m2m2m2m2m2m2m2m2m2m2m2m2T2S2S2S2S2R2m2m2m2m2m2m2m2m2m2m2m2m2m2m2                ",
"                Q2Q2c6U2U2U2U2U2P2P2U2U2U2U2U2U2U2U2U2U2U2U2U2U2U2U2U2O2N2M2M2M2L2U2U2U2U2U2U2U2U2U2U2U2U2U2U2U2                ",
"                Q2Q2c6Z2Z2Z2Z2Z2Z2Z2Z2Z2Z2Z2Z2Z2Z2Z2Z2Z2Z2Z2Z2Z2Z2Z2Z2K2J2J2J2J2I2Z2Z2Z2Z2Z2Z2Z2Z2Z2Z2Z2Z2Z2Z2Z2                ",
"                H2H2G2F2F2F2F2F2F2F2F2F2F2F2F2F2F2F2F2F2F2F2F2F2F2F2F2E2D2D2D2D2C2F2F2F2F2F2F2F2F2F2F2F2F2F2F2F2                ",
"                B2B2A2;2;2;2;2;2;2;2;2;2;2;2;2;2;2;2;2;2;2;2;2;2;2;2;2:29292929282;2;2;2;2;2;2;2;2;2;2;2;2;2;2;2                ",
"                7272b5626262626262626262626262626262626262626262626252424242424232626262626262626262626262626262                ",
"                727222121212121212121212121212121212121212121212121202z1z1z1z1z1y1121212121212121212121212121212                ",
"                x1x1w1v1v1v1v1v1v1v1v1v1v1v1v1v1v1v1v1v1v1v1v1v1v1v1u1t1t1t1t1t1s1v1v1v1v1v1v1v1v1v1v1v1v1v1v1v1                ",
"                x1x1p4r1r1r1r1r1r1r1r1r1r1r1r1r1r1r1r1r1r1r1r1r1r1r1q1p1p1p1p1p1o1r1r1r1r1r1r1r1r1r1r1r1r1r1r1r1                ",
"                n1n1m1l1l1l1l1l1l1l1l1l1l1l1l1l1l1l1l1l1l1l1l1l1l1l1k1j1j1j1j1j1i1l1l1l1l1l1l1l1l1l1l1l1l1l1l1l1                ",
"                h1h1Q4g1g1g1g1g1g1g1g1g1g1g1g1g1g1g1g1g1g1g1g1g1g1f1e1e1e1e1e1e1d1g1g1g1g1g1g1g1g1g1g1g1g1g1g1g1                ",
"                c1c1y3b1b1b1b1b1b1b1b1b1b1b1b1b1b1b1b1b1b1b1b1b1b1a1Z1Z1Z1Z1Z1Z1Y1b1b1b1b1b1b1b1b1b1b1b1b1b1b1b1                ",
"                c1c1X1W1W1W1W1W1W1W1W1W1W1W1W1W1W1W1W1W1W1W1W1W1W1V1U1U1U1U1U1U1T1W1W1W1W1W1W1W1W1W1W1W1W1W1W1W1                ",
"                S1S1R1Q1Q1Q1Q1Q1Q1Q1Q1Q1Q1Q1Q1Q1Q1Q1Q1Q1Q1Q1Q1Q1Q1P1O1O1O1O1O1O1O1N1Q1Q1Q1Q1Q1Q1Q1Q1Q1Q1Q1Q1Q1Q1                ",
"                M1M1L1K1K1K1K1K1K1K1K1K1K1K1K1K1K1K1K1K1K1K1K1K1K1J1I1I1I1I1I1I1I1H1K1K1K1K1K1K1K1K1K1K1K1K1K1K1                ",
"                M1M1G1F1F1F1F1F1F1F1F1F1F1F1F1F1F1F1F1F1F1F1F1F1F1E1D1D1D1D1D1D1D1C1B1F1F1F1F1F1F1F1F1F1F1F1A1;1                ",
"                :1:1p2919191919191919191919191919191919191919191919181717171717171718161919191919191919151413171                ",
"                2121110101010101010101010101010101010101010101010101z0y0y0y0y0y0y0y0y0x0w0v001010101u0t0s0y0y0y0                ",
"                r0r0q0p0p0p0p0p0p0p0p0p0p0p0p0p0p0p0p0p0p0p0p0p0p0p0o0n0n0n0n0n0n0n0n0n0n0n0m0l0k0j0n0n0n0n0n0n0                ",
"                r0r0q0i0i0i0i0i0i0i0i0i0i0i0i0i0i0i0i0i0i0i0i0i0i0i0h0g0g0g0g0g0g0g0g0g0g0g0g0g0g0g0g0g0g0g0g0g0                ",
"                f0f072e0e0e0e0e0e0e0e0e0e0e0e0e0e0e0e0e0e0e0e0e0e0e0d0c0b0b0b0b0b0b0b0b0b0b0b0b0b0b0b0b0b0b0b0b0                ",
"                f0f072a0a0a0a0a0a0a0a0a0a0a0a0a0a0a0a0a0a0a0a0a0a0a0a0Z0Y0Y0Y0Y0Y0Y0Y0Y0Y0Y0Y0Y0Y0Y0Y0Y0Y0Y0Y0X0                ",
"                W0W0B2l6l6l6l6l6l6l6l6l6l6l6l6l6l6l6l6l6l6l6l6l6l6l6l6V0U0T0T0T0T0T0T0T0T0T0T0T0T0T0T0T0T0S0R0l6                ",
"                Q0Q0q0P0P0P0P0P0P0P0P0P0P0P0P0P0P0P0P0P0P0P0P0P0P0P0P0P0O0N0M0M0M0M0M0M0M0M0M0M0M0M0M0M0L0K0P0P0                ",
"                Q0Q0J0I0I0I0I0I0I0I0I0I0I0I0I0I0I0I0I0I0I0I0I0I0I0I0I0I0I0I0I0I0I0I0I0I0I0I0I0I0I0I0I0I0I0I0I0H0                ",
"                G0G0L3F0F0F0F0F0F0F0F0F0F0F0F0F0F0F0F0F0F0F0F0F0F0F0F0F0F0F0z4E0D0C0C0C0C0C0C0D0B0A0;0F0F0F0F0F0                ",
"                :0:090808080808080808080808080808080808080808080808080808080808070605040302010008080808080808080                ",
"                                                                                                                                ",
"                                                                                                                                ",
"                                                                                                                                ",
"                                                                                                                                ",
"                                                                                                                                "};
