/* XPM */
static char *image[] = {
"32 32 2 1",
"  c None",
"0 c #000000",
"00000000                      00",
" 00000000                     00",
"  00000000                   00 ",
"   00000000                 00  ",
"   00000000                00   ",
"    00000000              00    ",
"     00000000            00     ",
"      00000000           00     ",
"      00000000          00      ",
"       00000000        00       ",
"        00000000      00        ",
"         00000000    00         ",
"         00000000   00          ",
"          00000000  00          ",
"           0000000 00           ",
"            00000 00            ",
"            0000 000            ",
"             00 00000           ",
"            00 0000000          ",
"           00  00000000         ",
"           00  00000000         ",
"          00    00000000        ",
"         00      00000000       ",
"        00        00000000      ",
"       00         00000000      ",
"      00           00000000     ",
"      00            00000000    ",
"     00              00000000   ",
"    00               00000000   ",
"   00                 00000000  ",
"  00                   00000000 ",
" 00                     00000000"};
